<?xml version="1.0" encoding="utf-8"?>
<!-- Generator: Adobe Illustrator 16.0.0, SVG Export Plug-In . SVG Version: 6.00 Build 0)  -->
<!DOCTYPE svg PUBLIC "-//W3C//DTD SVG 1.1//EN" "http://www.w3.org/Graphics/SVG/1.1/DTD/svg11.dtd">
<svg version="1.1" id="Layer_1" xmlns="http://www.w3.org/2000/svg" xmlns:xlink="http://www.w3.org/1999/xlink" x="0px" y="0px"
	 width="720px" height="742px" viewBox="0 0 720 742" enable-background="new 0 0 720 742" xml:space="preserve">
<g>
	<path fill-rule="evenodd" clip-rule="evenodd" fill="#FFFFFF" d="M0.545,0.691c239.97,0,479.939,0,719.91,0
		c0,247.635,0,495.27,0,742.906c-240.303,0-480.606,0-720.91,0c0-246.303,0-492.604,0-738.907c1.62,10.819,3.405,21.616,4.834,32.46
		c8.501,64.53,16.883,129.076,25.376,193.607c9.796,74.434,19.672,148.857,29.469,223.291c0.212,1.609,0.125,3.336-0.208,4.928
		c-7.694,36.805-15.498,73.586-23.167,110.393C24.116,625.686,12.466,682.018,0.812,738.35c-0.208,1.006-0.026,2.094-0.026,3.723
		c239.633-94.504,478.674-188.773,718.602-283.395c-2.713-1.76-4.484-2.928-6.273-4.064
		C477.266,304.585,241.416,154.561,5.578,4.516C3.807,3.389,2.219,1.972,0.545,0.691z"/>
	<path fill-rule="evenodd" clip-rule="evenodd" d="M36.465,569.18c7.669-36.807,15.472-73.588,23.167-110.393
		c0.333-1.592,0.42-3.318,0.208-4.928c-9.797-74.434-19.673-148.856-29.469-223.291C21.878,166.038,13.497,101.492,4.996,36.962
		C3.566,26.118,1.781,11.321,0.161,0.502c0.333-1.333-0.333,1.333,0,0c1.674,1.281,4.262,2.697,6.033,3.825
		c235.837,150.045,471.687,300.069,707.535,450.097c1.789,1.137,3.559,2.305,6.271,4.064
		C480.072,553.109,241.034,647.379,1.401,741.883"/>
</g>
</svg>
