<?xml version="1.0" encoding="utf-8"?>
<!-- Generator: Adobe Illustrator 16.0.0, SVG Export Plug-In . SVG Version: 6.00 Build 0)  -->
<!DOCTYPE svg PUBLIC "-//W3C//DTD SVG 1.1//EN" "http://www.w3.org/Graphics/SVG/1.1/DTD/svg11.dtd">
<svg version="1.1" id="Layer_1" xmlns="http://www.w3.org/2000/svg" xmlns:xlink="http://www.w3.org/1999/xlink" x="0px" y="0px"
	 width="300px" height="400px" viewBox="0 0 300 400" enable-background="new 0 0 300 400" xml:space="preserve">
<line fill="none" stroke="#000000" stroke-miterlimit="10" x1="15.243" y1="8.243" x2="15.243" y2="392.703"/>
<rect x="34.135" y="31.284" fill="none" width="193.081" height="41.216"/>
<text transform="matrix(1 0 0 1 34.1353 65.6523)" font-family="'Simplifica'" font-size="48">DESIGN</text>
<rect x="34.135" y="80.892" fill="none" width="82.432" height="42.567"/>
<text transform="matrix(1 0 0 1 34.1353 115.2598)" font-family="'Simplifica'" font-size="48">IS</text>
<rect x="29.514" y="130.459" fill="none" width="255.405" height="55.406"/>
<text transform="matrix(1 0 0 1 29.5137 164.8271)" fill="#0C0C0C" font-family="'Simplifica'" font-size="48">THE POWER</text>
<rect x="28.986" y="178.595" fill="none" width="104.729" height="51.35"/>
<text transform="matrix(1 0 0 1 28.9863 212.9629)" font-family="'Simplifica'" font-size="48">THAT</text>
<rect x="100.081" y="182" fill="none" width="137.837" height="61.486"/>
<text transform="matrix(1.3 0 0 0.9 100.0811 207.7754)" fill="#676767" font-family="'DexteraTrial'" font-size="28">CREATES</text>
<rect x="32.135" y="226.813" fill="none" width="119.596" height="45.945"/>
<text transform="matrix(1 0 0 1 32.1353 261.1797)" font-family="'Simplifica'" font-size="48">OPINION</text>
</svg>
